<svg width="48" height="48" viewBox="0 0 48 48" fill="none" xmlns="http://www.w3.org/2000/svg">
<path d="M4.66797 32.1704C4.76208 32.43 5.04883 32.5642 5.30844 32.4701C5.56805 32.376 5.70222 32.0892 5.6081 31.8296L4.66797 32.1704ZM24 44.5C20.6445 44.5 17.4887 43.6746 14.7332 42.2217L14.2668 43.1063C17.1634 44.6336 20.4789 45.5 24 45.5V44.5ZM5.6081 31.8296C4.89056 29.8503 4.5 27.7201 4.5 25.5H3.5C3.5 27.8382 3.91149 30.0837 4.66797 32.1704L5.6081 31.8296ZM39.1167 37.5032C35.5418 41.7722 30.0995 44.5 24 44.5V45.5C30.4028 45.5 36.1232 42.6354 39.8833 38.1452L39.1167 37.5032ZM27.4152 6.79036C36.5654 8.36504 43.5 16.1512 43.5 25.5H44.5C44.5 15.6381 37.1884 7.45756 27.5848 5.80485L27.4152 6.79036ZM4.5 25.5C4.5 18.2802 8.63384 11.9943 14.7332 8.77831L14.2668 7.89374C7.86082 11.2714 3.5 17.8854 3.5 25.5H4.5Z" fill="white"/>
<circle cx="7" cy="35" r="3.5" stroke="#FFFFFF" stroke-width="1.5"/>
<circle cx="24" cy="6" r="3.5" stroke="#FFFFFF" stroke-width="1.5"/>
<circle cx="41" cy="35" r="3.5" stroke="#FFFFFF" stroke-width="1.5"/>
</svg>
