<svg width="48" height="48" viewBox="0 0 48 48" fill="none" xmlns="http://www.w3.org/2000/svg">
<g clip-path="url(#clip0_214_444)">
<path d="M41.7199 23.9632C42.5418 24.3389 42.4833 25.5255 41.6285 25.8186L25.9459 31.1955C24.6847 31.6279 23.3153 31.6279 22.0541 31.1955L6.37152 25.8186C5.51671 25.5256 5.45824 24.3389 6.28008 23.9632M41.7199 31.9632C42.5418 32.3389 42.4833 33.5255 41.6285 33.8186L25.9459 39.1955C24.6847 39.6279 23.3153 39.6279 22.0541 39.1955L6.37152 33.8186C5.51671 33.5256 5.45824 32.3389 6.28008 31.9632M21.5054 9.60028L6.28009 16.5604C5.45824 16.9361 5.51672 18.1228 6.37152 18.4159L22.0541 23.7927C23.3153 24.2252 24.6847 24.2252 25.9459 23.7927L41.6285 18.4159C42.4833 18.1228 42.5418 16.9361 41.7199 16.5604L26.4946 9.60028C24.9104 8.87608 23.0896 8.87608 21.5054 9.60028Z" stroke="white" stroke-width="1.5" stroke-linecap="round" stroke-linejoin="round"/>
</g>
<defs>
<clipPath id="clip0_214_444">
<rect width="48" height="48" fill="white"/>
</clipPath>
</defs>
</svg>
