<svg width="48" height="48" viewBox="0 0 48 48" fill="none" xmlns="http://www.w3.org/2000/svg">
<line x1="2" y1="43.5" x2="50" y2="43.5" stroke="#FFFFFF" stroke-width="1.5" />
<rect x="5" y="36.5" width="5" height="3" stroke="#FFFFFF" stroke-width="1.5" />
<rect x="12" y="31.5" width="5" height="8" stroke="#FFFFFF" stroke-width="1.5" />
<rect x="19" y="26.5" width="5" height="13" stroke="#FFFFFF" stroke-width="1.5" />
<rect x="26" y="18.5" width="5" height="21" stroke="#FFFFFF" stroke-width="1.5" />
<rect x="33" y="12.5" width="5" height="27" stroke="#FFFFFF" stroke-width="1.5" />
<rect x="40" y="4.5" width="5" height="35" stroke="#FFFFFF" stroke-width="1.5" />
<!-- <path d="M39.4728 4.8374C39.383 4.57627 39.0985 4.43738 38.8374 4.52718L34.582 5.9906C34.3209 6.0804 34.182 6.36489 34.2718 6.62602C34.3616 6.88716 34.6461 7.02605 34.9072 6.93624L38.6898 5.63542L39.9906 9.418C40.0804 9.67913 40.3649 9.81802 40.626 9.72822C40.8872 9.63842 41.026 9.35393 40.9362 9.09279L39.4728 4.8374ZM33.5 15L33.0971 14.7039L33.0971 14.7039L33.5 15ZM38.5507 4.78064C36.824 8.31741 35.3685 11.613 33.0971 14.7039L33.9029 15.2961C36.2421 12.113 37.7455 8.70929 39.4493 5.21936L38.5507 4.78064ZM33.0971 14.7039C26.8432 23.2141 17.968 29.172 8.78488 33.5486L9.21512 34.4514C18.4802 30.0356 27.5153 23.9882 33.9029 15.2961L33.0971 14.7039Z" fill="white" /> -->
</svg>
