<svg width="48" height="48" viewBox="0 0 48 48" fill="none" xmlns="http://www.w3.org/2000/svg">
<path d="M31.8367 28.1277V35.8726C31.8367 36.0542 31.7403 36.2215 31.5848 36.3097L24.7277 40.1985C24.5798 40.2825 24.3998 40.2825 24.2519 40.1985L17.3948 36.3097C17.2393 36.2215 17.1429 36.0542 17.1429 35.8726L17.1428 28.1277C17.1428 27.9461 17.2393 27.7788 17.3948 27.6906L24.2519 23.8017C24.3998 23.7178 24.5798 23.7178 24.7277 23.8017L31.5848 27.6906C31.7402 27.7788 31.8367 27.9461 31.8367 28.1277Z" stroke="#FFFFFF" stroke-width="3" stroke-linecap="round" stroke-linejoin="round"/>
<path d="M17.5742 28.0779L24.2519 31.865C24.3998 31.9489 24.5798 31.9489 24.7277 31.865L31.4286 28.0647" stroke="#FFFFFF" stroke-width="3" stroke-linecap="round" stroke-linejoin="round"/>
<path d="M24.4898 39.5V32" stroke="#FFFFFF" stroke-width="3" stroke-linecap="round" stroke-linejoin="round"/>
<path d="M30.8571 24.0001L30.8571 20.1277C30.8571 19.9461 30.9536 19.7788 31.1091 19.6906L37.9662 15.8017C38.1141 15.7178 38.294 15.7178 38.442 15.8017L45.2991 19.6906C45.4545 19.7788 45.551 19.9461 45.551 20.1277V27.8726C45.551 28.0542 45.4546 28.2215 45.2991 28.3097L38.442 32.1985C38.294 32.2825 38.1141 32.2825 37.9662 32.1985L34.5376 30.2541" stroke="#FFFFFF" stroke-width="3" stroke-linecap="round" stroke-linejoin="round"/>
<path d="M31.2885 20.0779L37.9662 23.865C38.1141 23.9489 38.294 23.9489 38.442 23.865L45.1429 20.0647" stroke="#FFFFFF" stroke-width="3" stroke-linecap="round" stroke-linejoin="round"/>
<path d="M38.2041 31.5V24" stroke="#FFFFFF" stroke-width="3" stroke-linecap="round" stroke-linejoin="round"/>
<path d="M17.1429 24.0001L17.1429 20.1277C17.1429 19.9461 17.0464 19.7788 16.8909 19.6906L10.0338 15.8017C9.88587 15.7178 9.70595 15.7178 9.55804 15.8017L2.70089 19.6906C2.54546 19.7788 2.44897 19.9461 2.44897 20.1277V27.8726C2.44897 28.0542 2.54538 28.2215 2.70089 28.3097L9.55804 32.1985C9.70595 32.2825 9.88587 32.2825 10.0338 32.1985L13.4624 30.2541" stroke="#FFFFFF" stroke-width="3" stroke-linecap="round" stroke-linejoin="round"/>
<path d="M16.7115 20.0779L10.0338 23.865C9.88588 23.9489 9.70596 23.9489 9.55804 23.865L2.85714 20.0647" stroke="#FFFFFF" stroke-width="3" stroke-linecap="round" stroke-linejoin="round"/>
<path d="M9.79591 31.5V24" stroke="#FFFFFF" stroke-width="3" stroke-linecap="round" stroke-linejoin="round"/>
<path d="M31.8367 15.0001V11.1277C31.8367 10.9461 31.7402 10.7788 31.5848 10.6906L24.7277 6.80169C24.5798 6.7178 24.3998 6.7178 24.2519 6.80169L17.3948 10.6906C17.2393 10.7788 17.1428 10.9461 17.1428 11.1277L17.1428 15.0001" stroke="#FFFFFF" stroke-width="3" stroke-linecap="round" stroke-linejoin="round"/>
<path d="M17.5742 11.0779L24.2519 14.865C24.3998 14.9489 24.5798 14.9489 24.7277 14.865L31.4286 11.0647" stroke="#FFFFFF" stroke-width="3" stroke-linecap="round" stroke-linejoin="round"/>
<path d="M24.4898 15V18.75" stroke="#FFFFFF" stroke-width="3" stroke-linecap="round" stroke-linejoin="round"/>
</svg>
