<svg width="48" height="48" viewBox="0 0 48 48" fill="none" xmlns="http://www.w3.org/2000/svg">
<path d="M22 27.0099L21.99 26.9988" stroke="#FFFFFF" stroke-width="1.5" stroke-linecap="round" stroke-linejoin="round"/>
<path d="M18 27.0099L17.99 26.9988" stroke="#FFFFFF" stroke-width="1.5" stroke-linecap="round" stroke-linejoin="round"/>
<path d="M22 31.0099L21.99 30.9988" stroke="#FFFFFF" stroke-width="1.5" stroke-linecap="round" stroke-linejoin="round"/>
<path d="M18 31.0099L17.99 30.9988" stroke="#FFFFFF" stroke-width="1.5" stroke-linecap="round" stroke-linejoin="round"/>
<path d="M22 35.0099L21.99 34.9988" stroke="#FFFFFF" stroke-width="1.5" stroke-linecap="round" stroke-linejoin="round"/>
<path d="M18 35.0099L17.99 34.9988" stroke="#FFFFFF" stroke-width="1.5" stroke-linecap="round" stroke-linejoin="round"/>
<path d="M14 40H25.4C25.7314 40 26 39.7314 26 39.4V24.6C26 24.2686 25.7314 24 25.4 24H20V22.6C20 22.2686 19.7314 22 19.4 22H14.6C14.2686 22 14 22.2686 14 22.6V28M14 40H8.6C8.2686 40 8 39.7314 8 39.4V28.6C8 28.2686 8.2686 28 8.6 28H14M14 40V36M14 28V32M14 36V32M14 36H12M14 32H12" stroke="#FFFFFF" stroke-width="1.5" stroke-linecap="round" stroke-linejoin="round"/>
<path d="M25.75 40H40V33.3333V26.6667V20V11C40 10.4477 39.6642 10 39.25 10H33.25C32.8358 10 32.5 10.4477 32.5 11V13.3333H25.75C25.3358 13.3333 25 13.781 25 14.3333" stroke="#FFFFFF" stroke-width="1.5" stroke-linecap="round" stroke-linejoin="round"/>
<line x1="34.5" y1="18" x2="34.5" y2="33" stroke="#FFFFFF"/>
</svg>
