<svg width="279" height="90" viewBox="0 0 279 90" fill="none" xmlns="http://www.w3.org/2000/svg">
<path d="M79.6194 59.2978C79.624 60.1977 79.4374 61.0883 79.0718 61.9105C78.7062 62.7328 78.17 63.468 77.4988 64.0674C76.8276 64.6667 76.0366 65.1166 75.1784 65.3872C74.3201 65.6577 73.4142 65.7428 72.5206 65.6367C69.2676 65.1553 66.8839 62.3247 66.9632 59.0373V21.2425C66.8846 17.9516 69.2743 15.1194 72.5314 14.6433C73.4242 14.5388 74.329 14.625 75.1859 14.8963C76.0429 15.1675 76.8325 15.6176 77.5025 16.2168C78.1725 16.816 78.7077 17.5506 79.0726 18.3721C79.4375 19.1936 79.6239 20.0831 79.6194 20.982V59.2978Z" fill="#F9AB00"/>
<path d="M39.7947 53.0348C43.2897 53.0348 46.1228 55.8681 46.1228 59.3629C46.1228 62.8578 43.2897 65.6909 39.7947 65.6909C36.2998 65.6909 33.4667 62.8578 33.4667 59.3631C33.4667 55.8681 36.2998 53.0348 39.7947 53.0348V53.0348ZM56.4452 33.8552C52.9339 34.0477 50.2093 36.9932 50.2909 40.509V57.5069C50.2909 62.1199 52.3207 64.9204 55.2946 65.5173C56.2166 65.7042 57.1687 65.6836 58.0817 65.4568C58.9947 65.2301 59.8459 64.803 60.5733 64.2064C61.3008 63.6099 61.8863 62.859 62.2875 62.008C62.6887 61.1571 62.8955 60.2276 62.8928 59.2868V40.2161C62.8943 39.373 62.728 38.5381 62.4034 37.76C62.0788 36.9819 61.6026 36.2762 61.0024 35.6841C60.4022 35.092 59.6902 34.6254 58.9077 34.3114C58.1253 33.9974 57.2882 33.8424 56.4452 33.8554V33.8552Z" fill="#E37400"/>
<path d="M102.688 61.64C100.512 61.64 98.6773 61.2987 97.184 60.616C95.712 59.9333 94.592 59.0053 93.824 57.832C93.0773 56.6373 92.704 55.272 92.704 53.736H98.464C98.464 54.2907 98.6133 54.8027 98.912 55.272C99.232 55.72 99.7013 56.072 100.32 56.328C100.939 56.584 101.728 56.712 102.688 56.712C103.52 56.712 104.224 56.6053 104.8 56.392C105.397 56.1787 105.845 55.88 106.144 55.496C106.464 55.112 106.624 54.6533 106.624 54.12C106.624 53.4373 106.336 52.9147 105.76 52.552C105.184 52.168 104.213 51.9227 102.848 51.816L101.344 51.688C98.9333 51.4747 97.0133 50.7173 95.584 49.416C94.1547 48.1147 93.44 46.3867 93.44 44.232C93.44 42.696 93.792 41.384 94.496 40.296C95.2213 39.208 96.2347 38.376 97.536 37.8C98.8373 37.224 100.373 36.936 102.144 36.936C104.064 36.936 105.685 37.256 107.008 37.896C108.352 38.536 109.376 39.4427 110.08 40.616C110.784 41.768 111.136 43.112 111.136 44.648H105.376C105.376 44.136 105.248 43.6667 104.992 43.24C104.736 42.8133 104.363 42.4827 103.872 42.248C103.403 41.992 102.827 41.864 102.144 41.864C101.504 41.864 100.96 41.9707 100.512 42.184C100.085 42.376 99.7547 42.6533 99.52 43.016C99.3067 43.3787 99.2 43.784 99.2 44.232C99.2 44.8293 99.4027 45.3413 99.808 45.768C100.213 46.1947 100.917 46.4507 101.92 46.536L103.424 46.664C105.173 46.8133 106.72 47.1973 108.064 47.816C109.408 48.4133 110.464 49.2347 111.232 50.28C112 51.3253 112.384 52.6053 112.384 54.12C112.384 55.6347 111.989 56.9573 111.2 58.088C110.432 59.2187 109.323 60.0933 107.872 60.712C106.443 61.3307 104.715 61.64 102.688 61.64ZM123.622 61.256C121.702 61.256 120.166 61.0213 119.014 60.552C117.883 60.0827 117.062 59.304 116.55 58.216C116.038 57.128 115.782 55.656 115.782 53.8L115.814 38.728H121.19L121.158 53.96C121.158 54.7493 121.36 55.3573 121.766 55.784C122.192 56.1893 122.8 56.392 123.59 56.392H126.022V61.256H123.622ZM113.222 47.56V43.336H126.022V47.56H113.222ZM129.271 68.04V63.176H133.335C133.826 63.176 134.242 63.112 134.583 62.984C134.925 62.856 135.202 62.6427 135.415 62.344C135.629 62.0667 135.789 61.672 135.895 61.16L139.863 43.336H145.367L140.727 62.28C140.386 63.7307 139.906 64.872 139.287 65.704C138.69 66.5573 137.858 67.1547 136.791 67.496C135.746 67.8587 134.381 68.04 132.695 68.04H129.271ZM134.871 60.616V56.136H138.583V60.616H134.871ZM132.183 60.616L127.031 43.336H132.855L137.687 60.616H132.183ZM147.868 61V37.64H153.692V61H147.868ZM145.884 41.864V37.64H153.692V41.864H145.884ZM166.275 61.64C164.782 61.64 163.459 61.384 162.307 60.872C161.155 60.36 160.184 59.6667 159.395 58.792C158.606 57.9173 157.998 56.936 157.571 55.848C157.166 54.76 156.963 53.64 156.963 52.488V51.848C156.963 50.6533 157.166 49.512 157.571 48.424C157.998 47.3147 158.595 46.3333 159.363 45.48C160.152 44.6267 161.112 43.9547 162.243 43.464C163.374 42.952 164.654 42.696 166.083 42.696C167.982 42.696 169.592 43.1227 170.915 43.976C172.238 44.8293 173.251 45.96 173.955 47.368C174.659 48.7547 175.011 50.2693 175.011 51.912V53.768H159.395V50.632H171.651L169.635 52.04C169.635 51.0373 169.496 50.1947 169.219 49.512C168.963 48.808 168.568 48.2747 168.035 47.912C167.523 47.5493 166.872 47.368 166.083 47.368C165.315 47.368 164.643 47.5493 164.067 47.912C163.512 48.2533 163.086 48.7867 162.787 49.512C162.488 50.216 162.339 51.112 162.339 52.2C162.339 53.1813 162.478 54.0347 162.755 54.76C163.032 55.464 163.459 56.008 164.035 56.392C164.611 56.776 165.358 56.968 166.275 56.968C167.086 56.968 167.747 56.8293 168.259 56.552C168.792 56.2747 169.166 55.9013 169.379 55.432H174.691C174.435 56.6267 173.923 57.6933 173.155 58.632C172.408 59.5707 171.448 60.3067 170.275 60.84C169.123 61.3733 167.79 61.64 166.275 61.64ZM186.657 61.64C184.481 61.64 182.646 61.2987 181.153 60.616C179.681 59.9333 178.561 59.0053 177.793 57.832C177.046 56.6373 176.673 55.272 176.673 53.736H182.433C182.433 54.2907 182.582 54.8027 182.881 55.272C183.201 55.72 183.67 56.072 184.289 56.328C184.907 56.584 185.697 56.712 186.657 56.712C187.489 56.712 188.193 56.6053 188.769 56.392C189.366 56.1787 189.814 55.88 190.113 55.496C190.433 55.112 190.593 54.6533 190.593 54.12C190.593 53.4373 190.305 52.9147 189.729 52.552C189.153 52.168 188.182 51.9227 186.817 51.816L185.313 51.688C182.902 51.4747 180.982 50.7173 179.553 49.416C178.123 48.1147 177.409 46.3867 177.409 44.232C177.409 42.696 177.761 41.384 178.465 40.296C179.19 39.208 180.203 38.376 181.505 37.8C182.806 37.224 184.342 36.936 186.113 36.936C188.033 36.936 189.654 37.256 190.977 37.896C192.321 38.536 193.345 39.4427 194.049 40.616C194.753 41.768 195.105 43.112 195.105 44.648H189.345C189.345 44.136 189.217 43.6667 188.961 43.24C188.705 42.8133 188.331 42.4827 187.841 42.248C187.371 41.992 186.795 41.864 186.113 41.864C185.473 41.864 184.929 41.9707 184.481 42.184C184.054 42.376 183.723 42.6533 183.489 43.016C183.275 43.3787 183.169 43.784 183.169 44.232C183.169 44.8293 183.371 45.3413 183.777 45.768C184.182 46.1947 184.886 46.4507 185.889 46.536L187.393 46.664C189.142 46.8133 190.689 47.1973 192.033 47.816C193.377 48.4133 194.433 49.2347 195.201 50.28C195.969 51.3253 196.353 52.6053 196.353 54.12C196.353 55.6347 195.958 56.9573 195.169 58.088C194.401 59.2187 193.291 60.0933 191.841 60.712C190.411 61.3307 188.683 61.64 186.657 61.64ZM199.303 68.04V63.176H203.367C203.857 63.176 204.273 63.112 204.615 62.984C204.956 62.856 205.233 62.6427 205.447 62.344C205.66 62.0667 205.82 61.672 205.927 61.16L209.895 43.336H215.399L210.759 62.28C210.417 63.7307 209.937 64.872 209.319 65.704C208.721 66.5573 207.889 67.1547 206.823 67.496C205.777 67.8587 204.412 68.04 202.727 68.04H199.303ZM204.903 60.616V56.136H208.615V60.616H204.903ZM202.215 60.616L197.062 43.336H202.887L207.719 60.616H202.215ZM217.643 61V43.336H222.251V50.92H221.995C221.995 49.0853 222.23 47.5707 222.699 46.376C223.169 45.16 223.862 44.2533 224.779 43.656C225.718 43.0587 226.849 42.76 228.171 42.76H228.427C230.433 42.76 231.979 43.432 233.067 44.776C234.177 46.0987 234.731 48.136 234.731 50.888V61H228.907V50.728C228.907 49.9173 228.662 49.256 228.171 48.744C227.702 48.2107 227.051 47.944 226.219 47.944C225.387 47.944 224.715 48.2107 224.203 48.744C223.713 49.256 223.467 49.9387 223.467 50.792V61H217.643ZM246.707 61.64C245.171 61.64 243.838 61.3947 242.707 60.904C241.577 60.392 240.627 59.7093 239.859 58.856C239.113 58.0027 238.547 57.032 238.163 55.944C237.801 54.856 237.619 53.7253 237.619 52.552V51.912C237.619 50.6747 237.811 49.5013 238.195 48.392C238.601 47.2827 239.187 46.3013 239.955 45.448C240.723 44.5947 241.673 43.9227 242.803 43.432C243.934 42.9413 245.235 42.696 246.707 42.696C248.329 42.696 249.758 43.016 250.995 43.656C252.233 44.296 253.214 45.1813 253.939 46.312C254.686 47.4213 255.102 48.7013 255.187 50.152H249.491C249.427 49.448 249.161 48.8507 248.691 48.36C248.243 47.8693 247.582 47.624 246.707 47.624C245.961 47.624 245.342 47.816 244.851 48.2C244.382 48.584 244.03 49.1173 243.795 49.8C243.561 50.4827 243.443 51.2933 243.443 52.232C243.443 53.1067 243.539 53.8853 243.731 54.568C243.945 55.2507 244.286 55.784 244.755 56.168C245.246 56.5307 245.897 56.712 246.707 56.712C247.305 56.712 247.806 56.6053 248.211 56.392C248.617 56.1787 248.937 55.88 249.171 55.496C249.406 55.0907 249.555 54.6213 249.619 54.088H255.315C255.23 55.5813 254.803 56.8933 254.035 58.024C253.289 59.1547 252.286 60.04 251.027 60.68C249.769 61.32 248.329 61.64 246.707 61.64Z" fill="white"/>
</svg>
